<?xml version="1.0" encoding="UTF-8"?>
<svg width="49px" height="57px" viewBox="0 0 49 57" version="1.1" xmlns="http://www.w3.org/2000/svg" xmlns:xlink="http://www.w3.org/1999/xlink">
    <!-- Generator: Sketch 52.2 (67145) - http://www.bohemiancoding.com/sketch -->
    <title>通知 (1) copy</title>
    <desc>Created with Sketch.</desc>
    <g id="Page-1" stroke="none" stroke-width="1" fill="none" fill-rule="evenodd">
        <g id="画板" transform="translate(-430.000000, -11.000000)" fill="#999999">
            <g id="通知-(1)-copy" transform="translate(430.161290, 11.670720)">
                <path d="M43.1146149,45.0758932 L5.73239825,45.0758932 C4.01611656,45.0758932 2.39731132,44.2751938 1.29722001,42.8687479 C0.161508522,41.426421 -0.256153177,39.5456622 0.162315687,37.7581972 L0.270236037,37.4727305 L9.00134046,20.3099136 C9.55486741,19.241154 9.84381544,18.0470675 9.84381544,16.8529811 L9.84381544,13.6327771 C9.84381544,12.4526158 10.0283244,11.3316367 10.3938611,10.308134 C12.1658436,5.32639145 16.7855308,0 24.4235066,0 C32.0614823,0 36.6811695,5.32639145 38.453152,10.3046527 C38.8186887,11.3281554 39.0031977,12.4491345 39.0031977,13.6292958 L39.0031977,16.8529811 C39.0031977,18.0818805 39.3095522,19.380406 39.8456727,20.4143526 L48.6846974,37.7581972 C49.1128975,39.5092919 48.6846974,41.4205265 47.5497931,42.8687479 C46.4926836,44.2512483 44.8549296,45.0662688 43.1146149,45.0758932 Z M2.71062846,38.5240835 C2.53375813,39.4804518 2.77870895,40.466601 3.38251967,41.2290549 C3.97434094,41.9844973 4.83422244,42.4231413 5.73239825,42.4231413 L43.1146149,42.4231413 C44.0402783,42.4093574 44.9076311,41.9686136 45.4644934,41.2290549 C46.0691443,40.4670139 46.3141907,39.4804799 46.1363847,38.5240835 L37.4888315,21.6258456 C36.7443397,20.1450041 36.3568602,18.5104367 36.3574085,16.8529811 L36.3574085,13.6327771 C36.365895,12.8048579 36.2316409,11.9816685 35.9605401,11.1993473 C35.2468732,9.19411753 32.3051734,2.65275182 24.4235066,2.65275182 C16.5418397,2.65275182 13.6071025,9.19411753 12.8934356,11.195866 C12.6195249,11.9787679 12.484051,12.8033912 12.493086,13.6327771 L12.493086,16.8564624 C12.493086,18.4752676 12.0996989,20.0871102 11.3581816,21.5214065 L2.71062846,38.5240835 Z" id="形状" fill-rule="nonzero"></path>
                <path d="M24.4235066,55.6799378 C17.8355458,55.6741769 12.4969248,50.3339981 12.493086,43.7460359 C12.493086,43.0144601 13.0861454,42.4214007 13.8177212,42.4214007 C14.5492971,42.4214007 15.1423565,43.0144601 15.1423565,43.7460359 C15.1481121,48.8714103 19.3016135,53.0249117 24.4269879,53.0306673 C29.5510026,53.0229941 33.7023863,48.8700532 33.7081379,43.7460359 C33.7081379,43.0134988 34.3019767,42.41966 35.0345138,42.41966 C35.767051,42.41966 36.3608898,43.0134988 36.3608898,43.7460359 C36.3532127,50.3351244 31.012597,55.6741826 24.4235066,55.6799378 Z" id="路径"></path>
            </g>
        </g>
    </g>
</svg>