<?xml version="1.0" encoding="UTF-8"?>
<svg width="50px" height="50px" viewBox="0 0 50 50" version="1.1" xmlns="http://www.w3.org/2000/svg" xmlns:xlink="http://www.w3.org/1999/xlink">
    <!-- Generator: Sketch 52.2 (67145) - http://www.bohemiancoding.com/sketch -->
    <title>编辑 copy</title>
    <desc>Created with Sketch.</desc>
    <g id="Page-1" stroke="none" stroke-width="1" fill="none" fill-rule="evenodd">
        <g id="画板" transform="translate(-680.000000, -11.000000)" fill="#999999">
            <g id="编辑-copy" transform="translate(680.000000, 11.670720)">
                <path d="M42.3616027,49.0876752 L7.47557695,49.0876752 C3.4263061,49.0876752 0,45.6613691 0,41.6120983 L0,9.52941385 C0,5.480143 3.4263061,2.0538369 7.47557695,2.0538369 L35.5089905,2.0538369 C36.4434376,2.0538369 37.0664024,2.67680164 37.0664024,3.61124876 C37.0664024,4.54569588 36.4434376,5.16866063 35.5089905,5.16866063 L7.47557695,5.16866063 C5.29520034,5.16866063 3.11482373,7.03755486 3.11482373,9.52941385 L3.11482373,41.6120983 C3.11482373,44.1039572 4.98371797,45.9728515 7.47557695,45.9728515 L42.3616027,45.9728515 C44.8534617,45.9728515 46.7223559,44.1039572 46.7223559,41.6120983 L46.7223559,17.6279555 C46.7223559,16.6935084 47.3453207,16.0705437 48.2797678,16.0705437 C49.2142149,16.0705437 49.8371797,16.6935084 49.8371797,17.6279555 L49.8371797,41.6120983 C49.5256973,45.6613691 46.4108736,49.0876752 42.3616027,49.0876752 Z" id="路径"></path>
                <path d="M19.0004247,29.1528033 C18.6889424,29.1528033 18.0659776,29.1528033 17.7544953,28.841321 C17.1315305,28.2183562 17.1315305,27.2839091 17.7544953,26.6609444 L45.1649441,0.496425032 C45.7879088,-0.126539714 46.7223559,-0.126539714 47.3453207,0.496425032 C47.9682854,1.11938978 47.9682854,2.0538369 47.3453207,2.67680164 L19.9348719,28.841321 C19.9348719,29.1528033 19.3119071,29.1528033 19.0004247,29.1528033 Z" id="路径"></path>
            </g>
        </g>
    </g>
</svg>