<?xml version="1.0" encoding="UTF-8"?>
<svg width="23px" height="23px" viewBox="0 0 23 23" version="1.1" xmlns="http://www.w3.org/2000/svg" xmlns:xlink="http://www.w3.org/1999/xlink">
    <!-- Generator: Sketch 52.2 (67145) - http://www.bohemiancoding.com/sketch -->
    <title>Flag</title>
    <desc>Created with Sketch.</desc>
    <g id="Page-1" stroke="none" stroke-width="1" fill="none" fill-rule="evenodd" opacity="0.400000006">
        <g id="应援" transform="translate(-537.000000, -310.000000)" fill="#000000">
            <g id="分组-4-copy" transform="translate(30.000000, 70.000000)">
                <g id="分组-2" transform="translate(300.000000, 230.000000)">
                    <path d="M228.404708,11.6636428 C228.900667,11.8761967 229.184072,12.3013046 229.113221,12.8681151 L229.113221,22.8581499 C229.113221,23.1415551 228.971518,23.4958117 228.758964,23.7083656 C226.279169,26.2590128 222.240644,26.2590128 219.760848,23.7083656 C218.343822,22.2204881 216.07658,22.0787855 214.517851,23.354109 L212.108906,25.3379457 L212.108906,12.7972638 C212.108906,12.5138585 212.250609,12.159602 212.463163,11.947048 C214.942959,9.39640086 218.981484,9.39640086 221.461279,11.947048 C223.020008,13.5057769 225.499804,13.5057769 227.058533,11.947048 C227.412789,11.5927915 227.9796,11.4510889 228.404708,11.6636428 Z M209.345705,10.0340627 C210.12507,10.0340627 210.762732,10.6717244 210.762732,11.4510889 L210.762732,31.2894558 C210.762732,32.0688202 210.12507,32.706482 209.345705,32.706482 C208.566341,32.706482 207.928679,32.0688202 207.928679,31.2894558 L207.928679,11.4510889 C207.928679,10.6717244 208.566341,10.0340627 209.345705,10.0340627 Z" id="Flag"></path>
                </g>
            </g>
        </g>
    </g>
</svg>