<?xml version="1.0" encoding="UTF-8"?>
<svg width="58px" height="57px" viewBox="0 0 58 57" version="1.1" xmlns="http://www.w3.org/2000/svg" xmlns:xlink="http://www.w3.org/1999/xlink">
    <!-- Generator: Sketch 52.2 (67145) - http://www.bohemiancoding.com/sketch -->
    <title>新闻02 copy</title>
    <desc>Created with Sketch.</desc>
    <g id="Page-1" stroke="none" stroke-width="1" fill="none" fill-rule="evenodd">
        <g id="画板" transform="translate(-176.000000, -11.000000)" fill="#999999" fill-rule="nonzero">
            <g id="新闻02-copy" transform="translate(176.000000, 10.670720)">
                <path d="M0.994059629,33.7607767 C0.709935085,32.1583623 0.56085291,30.5349214 0.548369331,28.9037297 C0.548369331,13.2503313 13.2849435,0.515451314 28.9373195,0.515451314 C44.5919044,0.515451314 57.3262697,13.2491814 57.3262697,28.9037297 C57.3262697,44.5584022 44.5917802,57.2926799 28.9373195,57.2926799 C18.7292932,57.2926799 9.46084976,51.819286 4.40497576,43.1175315 L4.158871,42.6939562 L4.21274949,42.6611606 C4.18529845,42.5551634 4.1699267,42.4451592 4.16735739,42.3328793 C4.1612447,41.6749029 4.60764868,41.098789 5.24631069,40.9404185 C5.88497269,40.7820481 6.54882713,41.0828489 6.83536281,41.6396934 C6.83765633,41.6434388 6.83765633,41.6434388 6.84578424,41.6560974 C6.85680253,41.6731657 6.85680253,41.6731657 6.89430131,41.7389192 C6.87485797,41.701878 6.87485797,41.701878 6.88373481,41.7172632 C11.4319826,49.5298425 19.7538865,54.4344914 28.9373195,54.4344914 C43.0369454,54.4344914 54.4667376,43.0046992 54.4667376,28.9050733 C54.4667376,14.8043902 43.0385757,3.37296799 28.9400067,3.37296799 C14.8401468,3.37296799 3.41058858,14.8023224 3.41058251,28.8999233 C3.41777172,30.3594495 3.55003558,31.8156745 3.80592213,33.2526125 L3.87376338,33.6335769 L3.79699088,33.6687643 C3.68621421,34.3481906 3.09624024,34.8667753 2.38185127,34.8667604 C1.74466249,34.8615806 1.18914202,34.4321026 1.04499592,33.8792268 C1.07348113,33.9111335 1.09878917,33.9394813 1.12137707,33.9646682 C1.08746771,33.9117224 1.04614915,33.8449524 0.994059629,33.7607767 Z" id="路径"></path>
                <path d="M11.2321289,25.654923 L11.2321289,34.6959571 C11.1770416,35.2448146 10.8754051,35.5168921 10.3299065,35.5168921 C9.7252899,35.5168921 9.42835595,35.2481736 9.42835595,34.6959571 L9.42835595,23.4379953 C9.37237293,22.7276827 9.64557008,22.3445349 10.2479474,22.2885519 C10.684615,22.235256 11.1219543,22.5633165 11.5599655,23.2727334 L19.1022222,32.2385264 L19.1848531,32.2385264 L19.1848531,23.274077 C19.1848531,22.6728193 19.4844743,22.3463263 20.0864037,22.2898955 C20.6319023,22.3463263 20.9335388,22.6728193 20.9886261,23.274077 L20.9886261,34.5327106 C20.9886261,35.1883838 20.7149811,35.5164443 20.1676911,35.5168921 C19.676608,35.5713076 19.2385968,35.2992301 18.8563447,34.6959571 L11.3140881,25.654923 L11.2321289,25.654923 Z M25.2518452,30.7343745 L25.2518452,33.7957501 L29.7609417,33.7957501 C30.3064403,33.8503895 30.6069572,34.1504585 30.6624923,34.6959571 C30.607405,35.2448146 30.3064403,35.5168921 29.7609417,35.5168921 L24.4309102,35.5168921 C23.7201497,35.5168921 23.3925371,35.1888316 23.4480722,34.5327106 L23.4480722,23.4379953 C23.3923131,22.7803067 23.7201497,22.4538137 24.4309102,22.4538137 L29.7609417,22.4538137 C30.3064403,22.5084532 30.6069572,22.7814264 30.6624923,23.2727334 C30.607405,23.87735 30.3064403,24.1749558 29.7609417,24.1749558 L25.2518452,24.1749558 L25.2518452,29.0118889 L29.3498024,29.0118889 C29.8957488,29.0660805 30.1962657,29.3668213 30.251353,29.9141113 C30.1971614,30.4609534 29.8966446,30.7339267 29.3498024,30.7330309 L25.2518452,30.7343745 Z M35.827262,33.2220361 L39.2715615,23.0288714 C39.3794967,22.5362208 39.7071094,22.2898955 40.2543994,22.2898955 C40.691067,22.2898955 40.9920317,22.5362208 41.1572936,23.0288714 L44.5995776,33.2220361 L44.6815368,33.2220361 L46.6498999,23.1921178 C46.7031957,22.5906363 47.0308083,22.2898955 47.6327378,22.2898955 C48.1251645,22.3463263 48.3979137,22.6184038 48.453001,23.1101587 C48.4481415,23.4397036 48.4207579,23.7685308 48.3710419,24.0943402 L46.0775294,34.4507515 C45.9680266,35.1628555 45.5313591,35.5168921 44.7661831,35.5168921 C44.0003354,35.5715316 43.5076848,35.2161513 43.2882313,34.4507515 L40.2543994,25.3237274 L40.1731121,25.3237274 L37.1426391,34.4507515 C36.9213942,35.2152556 36.4287436,35.5706358 35.6646873,35.5168921 C34.8981678,35.5168921 34.4615002,35.1628555 34.3526692,34.4507515 L32.1357415,24.0943402 C32.0764571,24.0264776 32.0469254,23.9376407 32.0537824,23.847791 C31.9963864,23.6057482 31.9690842,23.3575466 31.972495,23.1088151 C31.972495,22.6170602 32.2721162,22.3449828 32.8740456,22.2885519 C33.4195442,22.2885519 33.7476047,22.5892927 33.8582272,23.1907743 L35.827262,33.2220361 Z" id="形状"></path>
            </g>
        </g>
    </g>
</svg>