<?xml version="1.0" encoding="UTF-8"?>
<svg width="26px" height="18px" viewBox="0 0 26 18" version="1.1" xmlns="http://www.w3.org/2000/svg" xmlns:xlink="http://www.w3.org/1999/xlink">
    <!-- Generator: Sketch 52.2 (67145) - http://www.bohemiancoding.com/sketch -->
    <title>forward</title>
    <desc>Created with Sketch.</desc>
    <g id="Page-1" stroke="none" stroke-width="1" fill="none" fill-rule="evenodd" opacity="0.400000006">
        <g id="应援" transform="translate(-330.000000, -310.000000)" fill="#000000">
            <g id="分组-4-copy" transform="translate(30.000000, 70.000000)">
                <g id="分组-2" transform="translate(300.000000, 230.000000)">
                    <path d="M10.5677914,13.2419552 L10.5677914,10.8167454 C10.5677914,10.1407496 9.74285844,9.78420671 9.22496331,10.2352694 L0.719152381,17.6508836 C-0.0108331323,18.2862 -0.0194647178,19.3929188 0.700656126,20.0401997 L9.21509864,27.6963009 C9.7305276,28.1605246 10.5677914,27.8051781 10.5677914,27.1243965 L10.5677914,24.0459236 C10.5677914,23.1186727 11.3507995,22.363711 12.3076724,22.3601216 C19.1303242,22.3349961 22.5176049,24.1763369 24.4535462,25.8944431 C25.0293963,26.4053284 25.9344797,25.8178701 25.6410058,25.1167488 C22.9343872,18.6379571 17.3707138,15.4685538 12.2558829,15.0031336 C11.3273709,14.9193819 10.5677914,14.145277 10.5677914,13.2419552" id="forward" transform="translate(12.932081, 18.970272) scale(-1, 1) translate(-12.932081, -18.970272) "></path>
                </g>
            </g>
        </g>
    </g>
</svg>