<?xml version="1.0" encoding="UTF-8"?>
<svg width="45px" height="42px" viewBox="0 0 45 42" version="1.1" xmlns="http://www.w3.org/2000/svg" xmlns:xlink="http://www.w3.org/1999/xlink">
    <!-- Generator: Sketch 52.2 (67145) - http://www.bohemiancoding.com/sketch -->
    <title>形状 copy</title>
    <desc>Created with Sketch.</desc>
    <g id="Page-1" stroke="none" stroke-width="1" fill="none" fill-rule="evenodd">
        <g id="投稿" transform="translate(-589.000000, -765.000000)" fill="#B94AC3">
            <g id="分组-2" transform="translate(30.000000, 170.000000)">
                <path d="M586.985583,606.455274 L598.35225,606.455274 C601.389816,606.455274 603.85225,608.917708 603.85225,611.955274 L603.85225,625.017774 C603.85225,631.092907 598.927382,636.017774 592.85225,636.017774 L577.635583,636.017774 C575.20553,636.017774 573.235583,634.047827 573.235583,631.617774 L573.235583,600.084441 C573.235583,597.654388 575.20553,595.684441 577.635583,595.684441 L577.904984,595.684441 C582.92006,595.684441 586.985583,599.749964 586.985583,604.76504 L586.985583,606.455274 Z M562.60225,608.403191 L567.185583,608.403191 C568.704366,608.403191 569.935583,609.634408 569.935583,611.153191 L569.935583,631.319858 C569.935583,632.838641 568.704366,634.069858 567.185583,634.069858 L562.60225,634.069858 C561.083467,634.069858 559.85225,632.838641 559.85225,631.319858 L559.85225,611.153191 C559.85225,609.634408 561.083467,608.403191 562.60225,608.403191 Z" id="形状-copy"></path>
            </g>
        </g>
    </g>
</svg>