<?xml version="1.0" encoding="UTF-8"?>
<svg width="45px" height="42px" viewBox="0 0 45 42" version="1.1" xmlns="http://www.w3.org/2000/svg" xmlns:xlink="http://www.w3.org/1999/xlink">
    <!-- Generator: Sketch 52.2 (67145) - http://www.bohemiancoding.com/sketch -->
    <title>形状</title>
    <desc>Created with Sketch.</desc>
    <g id="Page-1" stroke="none" stroke-width="1" fill="none" fill-rule="evenodd" opacity="0.5">
        <g id="投稿" transform="translate(-665.000000, -785.000000)" stroke="#000000" stroke-width="3">
            <g id="分组-2" transform="translate(30.000000, 170.000000)">
                <path d="M674.216417,628.121941 L661.34975,628.121941 L661.34975,624.931707 C661.34975,620.745058 657.9558,617.351108 653.769151,617.351108 L653.49975,617.351108 C651.898124,617.351108 650.59975,618.649482 650.59975,620.251108 L650.59975,651.784441 C650.59975,653.386067 651.898124,654.684441 653.49975,654.684441 L668.716417,654.684441 C673.963122,654.684441 678.216417,650.431146 678.216417,645.184441 L678.216417,632.121941 C678.216417,629.912802 676.425556,628.121941 674.216417,628.121941 Z M638.466417,630.069858 C637.776061,630.069858 637.216417,630.629502 637.216417,631.319858 L637.216417,651.486524 C637.216417,652.17688 637.776061,652.736524 638.466417,652.736524 L643.04975,652.736524 C643.740106,652.736524 644.29975,652.17688 644.29975,651.486524 L644.29975,631.319858 C644.29975,630.629502 643.740106,630.069858 643.04975,630.069858 L638.466417,630.069858 Z" id="形状"></path>
            </g>
        </g>
    </g>
</svg>